<svg width="103" height="28" viewBox="0 0 103 28" fill="none" xmlns="http://www.w3.org/2000/svg">
<g clip-path="url(#clip0_1_2753)">
<path d="M14 0C6.26801 0 0 6.26801 0 14C7.73199 14 14 7.73199 14 0Z" fill="#45D2B0"/>
<path d="M14 28C21.732 28 28 21.732 28 14C20.268 14 14 20.268 14 28Z" fill="#45D2B0"/>
<path d="M14 0C21.732 0 28 6.26801 28 14C20.268 14 14 7.73199 14 0Z" fill="#23216E"/>
<path d="M14 28C6.26801 28 -6.75951e-07 21.732 0 14C7.73199 14 14 20.268 14 28Z" fill="#23216E"/>
<path d="M38.353 21.2755H41.3891V9.09184H45.7421V6.55102H34V9.09184H38.353V21.2755Z" fill="#23216E"/>
<path d="M50.2669 21.5102C53.504 21.5102 54.9316 19.6122 55.2734 18.2041L55.2935 18.102H52.559L52.5289 18.1633C52.3278 18.5918 51.614 19.2857 50.3272 19.2857C48.769 19.2857 47.7938 18.2143 47.7636 16.3673H55.384V15.4388C55.384 12.0408 53.3733 9.79592 50.1463 9.79592C46.9192 9.79592 44.8583 12.0918 44.8583 15.6633V15.6735C44.8583 19.2755 46.8991 21.5102 50.2669 21.5102ZM50.1965 12.0306C51.4733 12.0306 52.3881 12.8673 52.5691 14.5H47.7938C47.9748 12.9082 48.9198 12.0306 50.1965 12.0306Z" fill="#23216E"/>
<path d="M61.3664 21.5102C64.2014 21.5102 66.2221 20.0612 66.2221 17.8367V17.8265C66.2221 16.1633 65.1867 15.2245 62.975 14.7449L61.1352 14.3469C59.9892 14.0918 59.577 13.7449 59.577 13.1429V13.1327C59.577 12.3776 60.3008 11.898 61.3162 11.898C62.412 11.898 63.0654 12.4592 63.2263 13.0612L63.2363 13.1122H65.9608V13.0714C65.8401 11.2653 64.2316 9.79592 61.3262 9.79592C58.5616 9.79592 56.7118 11.2041 56.7118 13.3163V13.3265C56.7118 15.0102 57.7573 16.0612 59.8685 16.5204L61.7183 16.9184C62.8443 17.1735 63.2866 17.551 63.2866 18.1531V18.1735C63.2866 18.9184 62.5226 19.4082 61.3966 19.4082C60.2405 19.4082 59.5669 18.9082 59.3357 18.2143L59.3156 18.1735H56.4303L56.4404 18.2143C56.6515 20.1429 58.3605 21.5102 61.3664 21.5102Z" fill="#23216E"/>
<path d="M72.3353 21.3163C72.8983 21.3163 73.4412 21.2551 73.8031 21.1837V18.9694C73.5216 19 73.3205 19.0204 72.9385 19.0204C71.9432 19.0204 71.521 18.5714 71.521 17.5612V12.2857H73.8031V10.0408H71.521V7.35714H68.5553V10.0408H66.8462V12.2857H68.5553V18.2449C68.5553 20.4286 69.641 21.3163 72.3353 21.3163Z" fill="#23216E"/>
<path d="M75.4224 25H78.358V19.4796H78.5389C79.1019 20.7041 80.3385 21.449 81.8565 21.449C84.6613 21.449 86.3503 19.2755 86.3503 15.6633V15.6429C86.3503 12.0612 84.6211 9.85714 81.8565 9.85714C80.2882 9.85714 79.112 10.5714 78.5389 11.7755H78.358V10.0408H75.4224V25ZM80.8512 18.9796C79.313 18.9796 78.3278 17.7245 78.3278 15.6633V15.6429C78.3278 13.5816 79.303 12.3265 80.8512 12.3265C82.4094 12.3265 83.3645 13.5816 83.3645 15.6429V15.6633C83.3645 17.7245 82.3994 18.9796 80.8512 18.9796Z" fill="#23216E"/>
<path d="M89.4274 8.31633C90.3322 8.31633 91.0761 7.58163 91.0761 6.66327C91.0761 5.73469 90.3322 5 89.4274 5C88.5226 5 87.7686 5.73469 87.7686 6.66327C87.7686 7.58163 88.5226 8.31633 89.4274 8.31633ZM87.9495 21.2755H90.8851V10.0408H87.9495V21.2755Z" fill="#23216E"/>
<path d="M97.8829 21.5102C101.12 21.5102 102.548 19.6122 102.889 18.2041L102.91 18.102H100.175L100.145 18.1633C99.9438 18.5918 99.23 19.2857 97.9432 19.2857C96.385 19.2857 95.4098 18.2143 95.3797 16.3673H103V15.4388C103 12.0408 100.989 9.79592 97.7623 9.79592C94.5352 9.79592 92.4743 12.0918 92.4743 15.6633V15.6735C92.4743 19.2755 94.5151 21.5102 97.8829 21.5102ZM97.8125 12.0306C99.0893 12.0306 100.004 12.8673 100.185 14.5H95.4098C95.5908 12.9082 96.5358 12.0306 97.8125 12.0306Z" fill="#23216E"/>
</g>
<defs>
<clipPath id="clip0_1_2753">
<rect width="103" height="28" fill="white"/>
</clipPath>
</defs>
</svg>
