<svg width="28" height="30" viewBox="0 0 28 30" fill="none" xmlns="http://www.w3.org/2000/svg">
<path d="M26.374 23.9813C25.7003 22.3854 24.7226 20.9359 23.4954 19.7134C22.272 18.4874 20.8227 17.5098 19.2275 16.8348C19.2133 16.8277 19.199 16.8241 19.1847 16.817C21.4097 15.2098 22.8561 12.592 22.8561 9.6384C22.8561 4.74554 18.8918 0.78125 13.999 0.78125C9.10612 0.78125 5.14183 4.74554 5.14183 9.6384C5.14183 12.592 6.58826 15.2098 8.81326 16.8205C8.79897 16.8277 8.78469 16.8313 8.7704 16.8384C7.1704 17.5134 5.73469 18.4813 4.50255 19.717C3.27651 20.9404 2.29899 22.3897 1.62397 23.9848C0.960838 25.5465 0.603194 27.2207 0.570402 28.917C0.569449 28.9551 0.576134 28.993 0.590065 29.0285C0.603997 29.064 0.624891 29.0963 0.651518 29.1236C0.678144 29.1509 0.709964 29.1726 0.745102 29.1874C0.780241 29.2022 0.817987 29.2098 0.856116 29.2098H2.99897C3.15612 29.2098 3.28112 29.0848 3.28469 28.9313C3.35612 26.1741 4.46326 23.592 6.4204 21.6348C8.4454 19.6098 11.1347 18.4955 13.999 18.4955C16.8633 18.4955 19.5525 19.6098 21.5775 21.6348C23.5347 23.592 24.6418 26.1741 24.7133 28.9313C24.7168 29.0884 24.8418 29.2098 24.999 29.2098H27.1418C27.18 29.2098 27.2177 29.2022 27.2528 29.1874C27.288 29.1726 27.3198 29.1509 27.3464 29.1236C27.3731 29.0963 27.394 29.064 27.4079 29.0285C27.4218 28.993 27.4285 28.9551 27.4275 28.917C27.3918 27.2098 27.0383 25.5491 26.374 23.9813ZM13.999 15.7813C12.3597 15.7813 10.8168 15.142 9.65612 13.9813C8.4954 12.8205 7.85612 11.2777 7.85612 9.6384C7.85612 7.99911 8.4954 6.45625 9.65612 5.29554C10.8168 4.13482 12.3597 3.49554 13.999 3.49554C15.6383 3.49554 17.1811 4.13482 18.3418 5.29554C19.5025 6.45625 20.1418 7.99911 20.1418 9.6384C20.1418 11.2777 19.5025 12.8205 18.3418 13.9813C17.1811 15.142 15.6383 15.7813 13.999 15.7813Z" fill="white"/>
</svg>
